<svg xmlns="http://www.w3.org/2000/svg" viewBox="0 0 144.64 61.55"><defs><style>.cls-1{fill:#fff;}</style></defs><g id="Layer_2" data-name="Layer 2"><g id="Layer_1-2" data-name="Layer 1"><path class="cls-1" d="M70.53,30.83l7.19-3.14c0,4.85,0,8.42.07,13.28L70.53,30.83m-9.86,3.33c-3.12,1.67-5.22,2.74-6.53,3.28,0-1.29,0-2.59,0-3.88l0-7.62a28.26,28.26,0,0,0,7.87-2.67l5.23,7.31c-2.32,1.25-4.59,2.5-6.61,3.58M54.2,21.47q0-3.31,0-6.64l2.29-2.29-2.26-2.26c0-.9.06-2.57.07-3.47,0,0,16.45.77,17.07.77,0,.1,0,.21,0,.31-.06.44-.14.88-.23,1.32-.06.27-.12.53-.19.8,0,.1,0,.21-.08.31s-.11.35-.12.42a16.66,16.66,0,0,1-5.11,7.89,23.19,23.19,0,0,1-11.45,5c0-.73,0-1.46,0-2.19m23.53,6.21s0,0,0,0ZM44.78,43.57V26.68c1.53,0,3,0,4.56-.14,1-.06,2-.16,2.93-.29q0,6.33,0,12.65c0,1.71.06,3.49,0,5.27Zm4.36,11.16a13.39,13.39,0,0,1-7.59,4.15q-.7.13-1.41.21l-.17,0h-.13l-.35,0a6.33,6.33,0,0,1-.87,0,15.4,15.4,0,0,1-7-2.39C22.87,51,24.91,38,29.07,30.08c.62-1.18,1.85-3.11,2.59-4.23l11.21.83V43.49c-4.49,0-8.48,3.84-8.48,3.84s3.16-2.06,10.4-2.06h7.43c-.15,3.44-.79,6.79-3.08,9.46M37.53,19q1.83-1.77,3.83-3.36c.46-.37.94-.74,1.42-1.09l.09-.07v9.76c-1.27,0-2.55,0-3.82,0H32.86A48,48,0,0,1,37.53,19M13,14.76l2.23-2.22L13,10.32V6.45c0-.06,16.49,1.13,17.11,1.13a1.39,1.39,0,0,1,0,.15,3.4,3.4,0,0,1-.06.46q-.07.54-.18,1.08c-.09.4-.18.8-.29,1.2l-.06.2c0,.11-.07.22-.1.33-.09.27-.18.54-.28.8a14.08,14.08,0,0,1-1.41,3,17.55,17.55,0,0,1-5.9,5.81A25.67,25.67,0,0,1,13,23.67Zm99.56,20.79a14.07,14.07,0,0,0-.52-9.15,9.16,9.16,0,0,0-4.39-4.32,14.44,14.44,0,0,0-6.47-1.22H97a20.63,20.63,0,0,1-5.44-.24,5.35,5.35,0,0,1-3.69-4.12,3.88,3.88,0,0,1-.18-1.26c0-.08,0-.22,0-.3a9.9,9.9,0,0,1,.22-1.21.84.84,0,0,0,0-.1s0,0,0-.07.09-.28.14-.42a5.1,5.1,0,0,1,.19-.5c0-.08.07-.16.1-.25s0-.1.08-.14c.17-.31.34-.62.53-.91l.3-.38c.11-.14.39-.46.42-.49a8.91,8.91,0,0,1,2.5-1.76,14.93,14.93,0,0,1,6.07-1.28v2.89l-2.22,2.22,2.22,2.22V18.1c0,.58.49.8,1,.56a1.93,1.93,0,0,0,.93-1.62V14.76l2.22-2.22-2.22-2.22V7.4h1.59c3.62,0,10.89,0,10.89,0l-8.93,10.47s7.41-6.7,11.64-10.81c.32-.31,1.29-2.13.19-2.13h-7.22c-2.72,0-5.49-.13-8.23-.05a1.55,1.55,0,0,1,0-.22,11.24,11.24,0,0,1,.17-1.84A8.93,8.93,0,0,1,100.5,2a4,4,0,0,1,.39-.81,2.29,2.29,0,0,1,.63-.65,2.18,2.18,0,0,1,.88-.33,2.12,2.12,0,0,0-1,.11,2.71,2.71,0,0,0-.88.55,4.25,4.25,0,0,0-.67.8,7.49,7.49,0,0,0-.51.91,12.45,12.45,0,0,0-.69,1.94L98.54,5l-.43,0-14.46.22,11.08,1A11.74,11.74,0,0,0,90.2,7.74a11,11,0,0,0-4.42,8,7.25,7.25,0,0,0,3,6.56,7.27,7.27,0,0,0,3.78,1c1.86,0,3.72,0,5.58,0,1.27,0,2.54,0,3.81,0a10,10,0,0,1,7.54,3.62c1.69,2.25,1.87,5.23,1.44,7.92a9,9,0,0,1-3.75,6.3,14.15,14.15,0,0,1-7.32,2c0-4.35.28-15.56.28-16.81,0-.58-.48-.8-1-.56a2,2,0,0,0-.94,1.62c0,3.39.34,13.84.34,15.7l-1.53,0c-2.81-.16-6.06-.46-8.44-2.11A3.41,3.41,0,0,1,87,38.06c0-4.26,8.06-12.54,7.69-12.2-.9.82-2.08,1.92-3.29,3.13-.46-.76-2.27-3.52-4.64-4.52a7.92,7.92,0,0,0-6.38-.19,82.57,82.57,0,0,0-10.92,5.1l-1.93-2.69L64.2,22c.43-.29.85-.6,1.26-.92a21.1,21.1,0,0,0,6.66-9.28,18.11,18.11,0,0,0,1.24-5.94c0-.29-.15-.68-.5-.68H54.12c-.06-.28-.13-.56-.2-.83a12.45,12.45,0,0,0-.69-1.94,6.18,6.18,0,0,0-.5-.91,4.36,4.36,0,0,0-.68-.81,2.67,2.67,0,0,0-.88-.55,2.25,2.25,0,0,0-1-.1,2,2,0,0,1,.88.32,2.29,2.29,0,0,1,.63.65,3.86,3.86,0,0,1,.39.82,6.31,6.31,0,0,1,.23.88,11.47,11.47,0,0,1,.17,1.85c0,.22,0,.57,0,.57-15.67,0-16.46,0-16.5,0L48.36,6.24c-.31.1-.62.21-.92.33a8.06,8.06,0,0,0-1.22.59,3.92,3.92,0,0,0-1,.87,1.76,1.76,0,0,0-.42,1.25,1.63,1.63,0,0,1,.6-1.08,3.37,3.37,0,0,1,1.08-.6,7,7,0,0,1,1.21-.34c.41-.08.83-.14,1.25-.18A23.87,23.87,0,0,1,51.44,7l1,0c0,.78,0,2.63,0,3.37l-2.19,2.19,2.16,2.16c0,3.08,0,6.16-.06,9.24l-1,.1c-2.15.2-4.33.23-6.51.22V12.19c0-.28-.15-.68-.5-.68H31c.72.05,10.47,1.56,10.5,1.62A53.78,53.78,0,0,0,30.86,24.21H19a23.71,23.71,0,0,0,3.46-1.81A19.52,19.52,0,0,0,31,11.51a21.3,21.3,0,0,0,.65-2.24,15.3,15.3,0,0,0,.46-3.43c0-.28-.16-.68-.5-.68H13V4.93a5.68,5.68,0,0,1,.21-1.43,2.8,2.8,0,0,1,.68-1.24,2.4,2.4,0,0,1,.61-.43,3,3,0,0,1,.75-.23,3.21,3.21,0,0,0-.82,0,2.7,2.7,0,0,0-.82.26,3.59,3.59,0,0,0-1.27,1.21l-.07.11a7.75,7.75,0,0,0-.33-.79,6.18,6.18,0,0,0-.5-.91,4.31,4.31,0,0,0-.67-.81A2.82,2.82,0,0,0,9.88.12a2.22,2.22,0,0,0-1-.1,2.07,2.07,0,0,1,.89.32A2.26,2.26,0,0,1,10.4,1a3.43,3.43,0,0,1,.39.82,5.17,5.17,0,0,1,.23.88,10.44,10.44,0,0,1,.17,1.85c0,.22,0,.45,0,.68H2.63l8.49,1.06v4L8.89,12.54l2.23,2.22v9.18l-1.58.15a35.77,35.77,0,0,0-5.48.34A5,5,0,0,0,0,29.13a5.14,5.14,0,0,1,5.32-3.36c1.21.05,1.66.08,3.5.25a23,23,0,0,0,2.32.14c0,5.61,0,11.32,0,16.93v4.14L5.17,55.92,24.93,36.16S13,46.68,13,41.92V26A29,29,0,0,0,19,24.22l10.94,1.41a36.22,36.22,0,0,0-6.14,16.75c-.43,5.09.38,10.73,4.05,14.56a14.91,14.91,0,0,0,11.89,4.53,16.73,16.73,0,0,0,8-3.1c4-2.92,6-7.65,6.35-12.47,0-.21,0-.42.05-.63h12l-12-1c0-1.4,0-2.81,0-4.21,0-.7,0-1.4,0-2.11l14-6.14L72,37.15l5.31,7.41a17.5,17.5,0,0,0,3.52,3.72,11.88,11.88,0,0,0,8,2.4c3.41-.34,5.59-2.17,7.49-3.36,0,0-9.11,5.85-16.63-3.71,0-5.32-.07-10.63-.07-15.95v-.79s2.22-.86,3-1c5.54-1.15,8.19,2.28,8.76,3.15a32.82,32.82,0,0,0-5,6,7.59,7.59,0,0,0-1.14,5.49c.8,3,4.46,4,7.15,4.53a37.5,37.5,0,0,0,6.2.5c.6,12.37.61,12.56.61,12.56s0-.19.6-12.61l1.2-.09a13.89,13.89,0,0,0,7.06-2.69,12.74,12.74,0,0,0,4.47-7.15"/><path class="cls-1" d="M133.19,41.74c0,4.6-13-6.84-14-7.65V22.68l14,3.81Zm1.94-17.54V14.75l2.21-2.21-2.21-2.2s-.1-5.49-.09-5.8a10.44,10.44,0,0,1,.17-1.85,5.17,5.17,0,0,1,.23-.88,3.43,3.43,0,0,1,.39-.82,2.26,2.26,0,0,1,.62-.65,2.07,2.07,0,0,1,.89-.32,2.22,2.22,0,0,0-1,.1,2.82,2.82,0,0,0-.89.55,4.31,4.31,0,0,0-.67.81,6.18,6.18,0,0,0-.5.91,7.75,7.75,0,0,0-.33.79l-.07-.11a3.59,3.59,0,0,0-1.27-1.21,2.7,2.7,0,0,0-.82-.26,3.14,3.14,0,0,0-.81,0,3,3,0,0,1,.74.23,2.4,2.4,0,0,1,.61.43A2.8,2.8,0,0,1,133,3.5a5.68,5.68,0,0,1,.21,1.43c0,.25,0,5.41,0,5.41l-2.2,2.2,2.2,2.21v9.16c-4-.63-8-1.33-12-2l-2-.33v-14c0-.07,14-2.42,14-2.42H118.74c-.82,0-1.41,1-1.41,1.74V21.28l-9.12-1.78,9.12,2.7V43.33l-9.88,2.29h23.31l-11.52-2.29V34.1l11.52,11.52,10.3,10.3-5.93-8.67V26.66a12.62,12.62,0,0,0,3.46-.28,7.75,7.75,0,0,0,6-7.84c0-.58,0,5.66-9.51,5.66"/><path class="cls-1" d="M77.09,1a3.43,3.43,0,0,1,.39.82,6.33,6.33,0,0,1,.24.88,10.43,10.43,0,0,1,.16,1.85c0,.31,0,.62,0,.93l0,.46c0,.15,0,.8,0,1V19.6c0,.58.48.8,1,.56a1.94,1.94,0,0,0,.94-1.62c0-4.06,0-13.36,0-13.61A6.17,6.17,0,0,1,79.9,3.5a2.82,2.82,0,0,1,.69-1.24,2.18,2.18,0,0,1,.6-.43,3,3,0,0,1,.75-.23,3.21,3.21,0,0,0-.82,0,2.79,2.79,0,0,0-.82.26A3.59,3.59,0,0,0,79,3.07L79,3.18c-.1-.27-.2-.53-.32-.79a7.33,7.33,0,0,0-.51-.91,4.31,4.31,0,0,0-.67-.81,2.89,2.89,0,0,0-.88-.55,2.42,2.42,0,0,0-1-.11,2.23,2.23,0,0,1,.88.33,2.26,2.26,0,0,1,.62.65"/></g></g></svg>